<mxfile host="app.diagrams.net" modified="2024-01-25T10:22:57.045Z" agent="Mozilla/5.0 (Windows NT 10.0; Win64; x64) AppleWebKit/537.36 (KHTML, like Gecko) Chrome/120.0.0.0 Safari/537.36" etag="P4NduZpmlH0mrs9k6Ntx" version="22.1.18" type="device">
  <diagram name="Page-1" id="01w08jtkryQKAGQFtI3G">
    <mxGraphModel dx="1290" dy="623" grid="1" gridSize="10" guides="1" tooltips="1" connect="1" arrows="1" fold="1" page="1" pageScale="1" pageWidth="850" pageHeight="1100" math="0" shadow="0">
      <root>
        <mxCell id="0" />
        <mxCell id="1" parent="0" />
        <mxCell id="Kv8froiZScfGqTA3IBXo-1" value="saving_fixed" style="rounded=0;whiteSpace=wrap;html=1;" parent="1" vertex="1">
          <mxGeometry x="140" y="160" width="110" height="40" as="geometry" />
        </mxCell>
        <mxCell id="Kv8froiZScfGqTA3IBXo-2" value="student_saving" style="rounded=0;whiteSpace=wrap;html=1;" parent="1" vertex="1">
          <mxGeometry x="450" y="160" width="110" height="40" as="geometry" />
        </mxCell>
        <mxCell id="Kv8froiZScfGqTA3IBXo-3" value="personal_loan" style="rounded=0;whiteSpace=wrap;html=1;" parent="1" vertex="1">
          <mxGeometry x="850" y="160" width="110" height="40" as="geometry" />
        </mxCell>
        <mxCell id="Kv8froiZScfGqTA3IBXo-4" value="education_loan" style="rounded=0;whiteSpace=wrap;html=1;" parent="1" vertex="1">
          <mxGeometry x="1180" y="160" width="110" height="40" as="geometry" />
        </mxCell>
        <mxCell id="Kv8froiZScfGqTA3IBXo-27" style="edgeStyle=orthogonalEdgeStyle;rounded=0;orthogonalLoop=1;jettySize=auto;html=1;exitX=1;exitY=1;exitDx=0;exitDy=0;entryX=0;entryY=0.5;entryDx=0;entryDy=0;" parent="1" source="Kv8froiZScfGqTA3IBXo-5" target="Kv8froiZScfGqTA3IBXo-1" edge="1">
          <mxGeometry relative="1" as="geometry" />
        </mxCell>
        <mxCell id="Kv8froiZScfGqTA3IBXo-5" value="&lt;u&gt;sid&lt;/u&gt;" style="ellipse;whiteSpace=wrap;html=1;" parent="1" vertex="1">
          <mxGeometry x="10" y="110" width="80" height="40" as="geometry" />
        </mxCell>
        <mxCell id="Kv8froiZScfGqTA3IBXo-6" value="fixed_rate" style="ellipse;whiteSpace=wrap;html=1;" parent="1" vertex="1">
          <mxGeometry x="270" y="20" width="80" height="40" as="geometry" />
        </mxCell>
        <mxCell id="Kv8froiZScfGqTA3IBXo-30" style="edgeStyle=orthogonalEdgeStyle;rounded=0;orthogonalLoop=1;jettySize=auto;html=1;exitX=0.5;exitY=1;exitDx=0;exitDy=0;" parent="1" source="Kv8froiZScfGqTA3IBXo-7" target="Kv8froiZScfGqTA3IBXo-1" edge="1">
          <mxGeometry relative="1" as="geometry" />
        </mxCell>
        <mxCell id="Kv8froiZScfGqTA3IBXo-7" value="saving_rate" style="ellipse;whiteSpace=wrap;html=1;" parent="1" vertex="1">
          <mxGeometry x="170" y="10" width="80" height="40" as="geometry" />
        </mxCell>
        <mxCell id="Kv8froiZScfGqTA3IBXo-29" style="edgeStyle=orthogonalEdgeStyle;rounded=0;orthogonalLoop=1;jettySize=auto;html=1;exitX=1;exitY=1;exitDx=0;exitDy=0;entryX=0.25;entryY=0;entryDx=0;entryDy=0;" parent="1" source="Kv8froiZScfGqTA3IBXo-8" target="Kv8froiZScfGqTA3IBXo-1" edge="1">
          <mxGeometry relative="1" as="geometry" />
        </mxCell>
        <mxCell id="Kv8froiZScfGqTA3IBXo-8" value="code" style="ellipse;whiteSpace=wrap;html=1;" parent="1" vertex="1">
          <mxGeometry x="80" y="20" width="80" height="40" as="geometry" />
        </mxCell>
        <mxCell id="Kv8froiZScfGqTA3IBXo-28" style="edgeStyle=orthogonalEdgeStyle;rounded=0;orthogonalLoop=1;jettySize=auto;html=1;exitX=1;exitY=1;exitDx=0;exitDy=0;entryX=0;entryY=0;entryDx=0;entryDy=0;" parent="1" source="Kv8froiZScfGqTA3IBXo-9" target="Kv8froiZScfGqTA3IBXo-1" edge="1">
          <mxGeometry relative="1" as="geometry" />
        </mxCell>
        <mxCell id="Kv8froiZScfGqTA3IBXo-9" value="name" style="ellipse;whiteSpace=wrap;html=1;" parent="1" vertex="1">
          <mxGeometry x="30" y="60" width="80" height="40" as="geometry" />
        </mxCell>
        <mxCell id="Kv8froiZScfGqTA3IBXo-10" value="interest" style="ellipse;whiteSpace=wrap;html=1;" parent="1" vertex="1">
          <mxGeometry x="620" y="50" width="80" height="40" as="geometry" />
        </mxCell>
        <mxCell id="Kv8froiZScfGqTA3IBXo-35" style="edgeStyle=orthogonalEdgeStyle;rounded=0;orthogonalLoop=1;jettySize=auto;html=1;exitX=0;exitY=1;exitDx=0;exitDy=0;entryX=0.75;entryY=0;entryDx=0;entryDy=0;" parent="1" source="Kv8froiZScfGqTA3IBXo-11" target="Kv8froiZScfGqTA3IBXo-2" edge="1">
          <mxGeometry relative="1" as="geometry" />
        </mxCell>
        <mxCell id="Kv8froiZScfGqTA3IBXo-11" value="bank_name" style="ellipse;whiteSpace=wrap;html=1;" parent="1" vertex="1">
          <mxGeometry x="570" y="10" width="80" height="40" as="geometry" />
        </mxCell>
        <mxCell id="Kv8froiZScfGqTA3IBXo-34" style="edgeStyle=orthogonalEdgeStyle;rounded=0;orthogonalLoop=1;jettySize=auto;html=1;exitX=0.5;exitY=1;exitDx=0;exitDy=0;" parent="1" source="Kv8froiZScfGqTA3IBXo-12" target="Kv8froiZScfGqTA3IBXo-2" edge="1">
          <mxGeometry relative="1" as="geometry" />
        </mxCell>
        <mxCell id="Kv8froiZScfGqTA3IBXo-12" value="type" style="ellipse;whiteSpace=wrap;html=1;" parent="1" vertex="1">
          <mxGeometry x="470" width="80" height="40" as="geometry" />
        </mxCell>
        <mxCell id="Kv8froiZScfGqTA3IBXo-13" value="code" style="ellipse;whiteSpace=wrap;html=1;" parent="1" vertex="1">
          <mxGeometry x="400" y="30" width="80" height="40" as="geometry" />
        </mxCell>
        <mxCell id="Kv8froiZScfGqTA3IBXo-32" style="edgeStyle=orthogonalEdgeStyle;rounded=0;orthogonalLoop=1;jettySize=auto;html=1;exitX=0.5;exitY=1;exitDx=0;exitDy=0;entryX=0;entryY=0.75;entryDx=0;entryDy=0;" parent="1" source="Kv8froiZScfGqTA3IBXo-14" target="Kv8froiZScfGqTA3IBXo-2" edge="1">
          <mxGeometry relative="1" as="geometry" />
        </mxCell>
        <mxCell id="Kv8froiZScfGqTA3IBXo-14" value="&lt;u&gt;stid&lt;/u&gt;" style="ellipse;whiteSpace=wrap;html=1;" parent="1" vertex="1">
          <mxGeometry x="380" y="80" width="80" height="40" as="geometry" />
        </mxCell>
        <mxCell id="Kv8froiZScfGqTA3IBXo-37" style="edgeStyle=orthogonalEdgeStyle;rounded=0;orthogonalLoop=1;jettySize=auto;html=1;exitX=0;exitY=1;exitDx=0;exitDy=0;entryX=1;entryY=0.5;entryDx=0;entryDy=0;" parent="1" source="Kv8froiZScfGqTA3IBXo-15" target="Kv8froiZScfGqTA3IBXo-2" edge="1">
          <mxGeometry relative="1" as="geometry" />
        </mxCell>
        <mxCell id="Kv8froiZScfGqTA3IBXo-15" value="minBalance" style="ellipse;whiteSpace=wrap;html=1;" parent="1" vertex="1">
          <mxGeometry x="630" y="100" width="80" height="40" as="geometry" />
        </mxCell>
        <mxCell id="Kv8froiZScfGqTA3IBXo-40" style="edgeStyle=orthogonalEdgeStyle;rounded=0;orthogonalLoop=1;jettySize=auto;html=1;exitX=0;exitY=1;exitDx=0;exitDy=0;entryX=0.5;entryY=0;entryDx=0;entryDy=0;" parent="1" source="Kv8froiZScfGqTA3IBXo-16" target="Kv8froiZScfGqTA3IBXo-3" edge="1">
          <mxGeometry relative="1" as="geometry" />
        </mxCell>
        <mxCell id="Kv8froiZScfGqTA3IBXo-16" value="code" style="ellipse;whiteSpace=wrap;html=1;" parent="1" vertex="1">
          <mxGeometry x="890" y="10" width="80" height="40" as="geometry" />
        </mxCell>
        <mxCell id="Kv8froiZScfGqTA3IBXo-39" style="edgeStyle=orthogonalEdgeStyle;rounded=0;orthogonalLoop=1;jettySize=auto;html=1;exitX=0.5;exitY=1;exitDx=0;exitDy=0;entryX=0;entryY=0;entryDx=0;entryDy=0;" parent="1" source="Kv8froiZScfGqTA3IBXo-17" target="Kv8froiZScfGqTA3IBXo-3" edge="1">
          <mxGeometry relative="1" as="geometry" />
        </mxCell>
        <mxCell id="Kv8froiZScfGqTA3IBXo-17" value="name" style="ellipse;whiteSpace=wrap;html=1;" parent="1" vertex="1">
          <mxGeometry x="800" y="10" width="80" height="40" as="geometry" />
        </mxCell>
        <mxCell id="Kv8froiZScfGqTA3IBXo-38" style="edgeStyle=orthogonalEdgeStyle;rounded=0;orthogonalLoop=1;jettySize=auto;html=1;exitX=0.5;exitY=1;exitDx=0;exitDy=0;entryX=0;entryY=0.75;entryDx=0;entryDy=0;" parent="1" source="Kv8froiZScfGqTA3IBXo-19" target="Kv8froiZScfGqTA3IBXo-3" edge="1">
          <mxGeometry relative="1" as="geometry" />
        </mxCell>
        <mxCell id="Kv8froiZScfGqTA3IBXo-19" value="&lt;u&gt;pid&lt;/u&gt;" style="ellipse;whiteSpace=wrap;html=1;" parent="1" vertex="1">
          <mxGeometry x="750" y="60" width="80" height="40" as="geometry" />
        </mxCell>
        <mxCell id="Kv8froiZScfGqTA3IBXo-41" style="edgeStyle=orthogonalEdgeStyle;rounded=0;orthogonalLoop=1;jettySize=auto;html=1;exitX=0;exitY=1;exitDx=0;exitDy=0;entryX=0.75;entryY=0;entryDx=0;entryDy=0;" parent="1" source="Kv8froiZScfGqTA3IBXo-20" target="Kv8froiZScfGqTA3IBXo-3" edge="1">
          <mxGeometry relative="1" as="geometry" />
        </mxCell>
        <mxCell id="Kv8froiZScfGqTA3IBXo-20" value="interest" style="ellipse;whiteSpace=wrap;html=1;" parent="1" vertex="1">
          <mxGeometry x="970" y="50" width="80" height="40" as="geometry" />
        </mxCell>
        <mxCell id="Kv8froiZScfGqTA3IBXo-42" style="edgeStyle=orthogonalEdgeStyle;rounded=0;orthogonalLoop=1;jettySize=auto;html=1;exitX=0.5;exitY=1;exitDx=0;exitDy=0;entryX=0;entryY=0.5;entryDx=0;entryDy=0;" parent="1" source="Kv8froiZScfGqTA3IBXo-22" target="Kv8froiZScfGqTA3IBXo-4" edge="1">
          <mxGeometry relative="1" as="geometry" />
        </mxCell>
        <mxCell id="Kv8froiZScfGqTA3IBXo-22" value="&lt;u&gt;sid&lt;/u&gt;" style="ellipse;whiteSpace=wrap;html=1;" parent="1" vertex="1">
          <mxGeometry x="1090" y="50" width="80" height="40" as="geometry" />
        </mxCell>
        <mxCell id="Kv8froiZScfGqTA3IBXo-43" style="edgeStyle=orthogonalEdgeStyle;rounded=0;orthogonalLoop=1;jettySize=auto;html=1;exitX=0.5;exitY=1;exitDx=0;exitDy=0;entryX=0.25;entryY=0;entryDx=0;entryDy=0;" parent="1" source="Kv8froiZScfGqTA3IBXo-23" target="Kv8froiZScfGqTA3IBXo-4" edge="1">
          <mxGeometry relative="1" as="geometry" />
        </mxCell>
        <mxCell id="Kv8froiZScfGqTA3IBXo-23" value="name" style="ellipse;whiteSpace=wrap;html=1;" parent="1" vertex="1">
          <mxGeometry x="1170" y="10" width="80" height="40" as="geometry" />
        </mxCell>
        <mxCell id="Kv8froiZScfGqTA3IBXo-24" value="code" style="ellipse;whiteSpace=wrap;html=1;" parent="1" vertex="1">
          <mxGeometry x="1260" y="10" width="80" height="40" as="geometry" />
        </mxCell>
        <mxCell id="Kv8froiZScfGqTA3IBXo-45" style="edgeStyle=orthogonalEdgeStyle;rounded=0;orthogonalLoop=1;jettySize=auto;html=1;exitX=0.5;exitY=1;exitDx=0;exitDy=0;entryX=1;entryY=0;entryDx=0;entryDy=0;" parent="1" source="Kv8froiZScfGqTA3IBXo-25" target="Kv8froiZScfGqTA3IBXo-4" edge="1">
          <mxGeometry relative="1" as="geometry" />
        </mxCell>
        <mxCell id="Kv8froiZScfGqTA3IBXo-25" value="saving_rate" style="ellipse;whiteSpace=wrap;html=1;" parent="1" vertex="1">
          <mxGeometry x="1310" y="50" width="80" height="40" as="geometry" />
        </mxCell>
        <mxCell id="Kv8froiZScfGqTA3IBXo-46" style="edgeStyle=orthogonalEdgeStyle;rounded=0;orthogonalLoop=1;jettySize=auto;html=1;exitX=0;exitY=1;exitDx=0;exitDy=0;" parent="1" source="Kv8froiZScfGqTA3IBXo-26" target="Kv8froiZScfGqTA3IBXo-4" edge="1">
          <mxGeometry relative="1" as="geometry" />
        </mxCell>
        <mxCell id="Kv8froiZScfGqTA3IBXo-26" value="fixed_rate" style="ellipse;whiteSpace=wrap;html=1;" parent="1" vertex="1">
          <mxGeometry x="1370" y="120" width="80" height="40" as="geometry" />
        </mxCell>
        <mxCell id="Kv8froiZScfGqTA3IBXo-31" style="edgeStyle=orthogonalEdgeStyle;rounded=0;orthogonalLoop=1;jettySize=auto;html=1;exitX=0;exitY=1;exitDx=0;exitDy=0;entryX=0.935;entryY=0.05;entryDx=0;entryDy=0;entryPerimeter=0;" parent="1" source="Kv8froiZScfGqTA3IBXo-6" target="Kv8froiZScfGqTA3IBXo-1" edge="1">
          <mxGeometry relative="1" as="geometry" />
        </mxCell>
        <mxCell id="Kv8froiZScfGqTA3IBXo-33" style="edgeStyle=orthogonalEdgeStyle;rounded=0;orthogonalLoop=1;jettySize=auto;html=1;exitX=1;exitY=1;exitDx=0;exitDy=0;entryX=0.175;entryY=0.01;entryDx=0;entryDy=0;entryPerimeter=0;" parent="1" source="Kv8froiZScfGqTA3IBXo-13" target="Kv8froiZScfGqTA3IBXo-2" edge="1">
          <mxGeometry relative="1" as="geometry" />
        </mxCell>
        <mxCell id="Kv8froiZScfGqTA3IBXo-36" style="edgeStyle=orthogonalEdgeStyle;rounded=0;orthogonalLoop=1;jettySize=auto;html=1;exitX=0;exitY=0.5;exitDx=0;exitDy=0;entryX=0.865;entryY=-0.05;entryDx=0;entryDy=0;entryPerimeter=0;" parent="1" source="Kv8froiZScfGqTA3IBXo-10" target="Kv8froiZScfGqTA3IBXo-2" edge="1">
          <mxGeometry relative="1" as="geometry" />
        </mxCell>
        <mxCell id="Kv8froiZScfGqTA3IBXo-44" style="edgeStyle=orthogonalEdgeStyle;rounded=0;orthogonalLoop=1;jettySize=auto;html=1;exitX=0.5;exitY=1;exitDx=0;exitDy=0;entryX=0.607;entryY=0.05;entryDx=0;entryDy=0;entryPerimeter=0;" parent="1" source="Kv8froiZScfGqTA3IBXo-24" target="Kv8froiZScfGqTA3IBXo-4" edge="1">
          <mxGeometry relative="1" as="geometry" />
        </mxCell>
        <mxCell id="Kv8froiZScfGqTA3IBXo-51" style="edgeStyle=orthogonalEdgeStyle;rounded=0;orthogonalLoop=1;jettySize=auto;html=1;exitX=0;exitY=0.5;exitDx=0;exitDy=0;entryX=1;entryY=0.5;entryDx=0;entryDy=0;" parent="1" source="Kv8froiZScfGqTA3IBXo-49" target="Kv8froiZScfGqTA3IBXo-50" edge="1">
          <mxGeometry relative="1" as="geometry" />
        </mxCell>
        <mxCell id="Kv8froiZScfGqTA3IBXo-49" value="users" style="rounded=0;whiteSpace=wrap;html=1;" parent="1" vertex="1">
          <mxGeometry x="1330" y="320" width="110" height="40" as="geometry" />
        </mxCell>
        <mxCell id="Kv8froiZScfGqTA3IBXo-71" style="edgeStyle=orthogonalEdgeStyle;rounded=0;orthogonalLoop=1;jettySize=auto;html=1;exitX=0;exitY=0.5;exitDx=0;exitDy=0;entryX=1;entryY=0.75;entryDx=0;entryDy=0;" parent="1" source="Kv8froiZScfGqTA3IBXo-50" target="Kv8froiZScfGqTA3IBXo-53" edge="1">
          <mxGeometry relative="1" as="geometry" />
        </mxCell>
        <mxCell id="Kv8froiZScfGqTA3IBXo-89" style="edgeStyle=orthogonalEdgeStyle;rounded=0;orthogonalLoop=1;jettySize=auto;html=1;exitX=0.5;exitY=1;exitDx=0;exitDy=0;entryX=1;entryY=0.5;entryDx=0;entryDy=0;" parent="1" source="Kv8froiZScfGqTA3IBXo-50" target="Kv8froiZScfGqTA3IBXo-52" edge="1">
          <mxGeometry relative="1" as="geometry" />
        </mxCell>
        <mxCell id="Kv8froiZScfGqTA3IBXo-50" value="has" style="triangle;whiteSpace=wrap;html=1;rotation=0;" parent="1" vertex="1">
          <mxGeometry x="1170" y="300" width="60" height="80" as="geometry" />
        </mxCell>
        <mxCell id="Kv8froiZScfGqTA3IBXo-52" value="user" style="rounded=0;whiteSpace=wrap;html=1;" parent="1" vertex="1">
          <mxGeometry x="960" y="440" width="110" height="40" as="geometry" />
        </mxCell>
        <mxCell id="Kv8froiZScfGqTA3IBXo-53" value="admin" style="rounded=0;whiteSpace=wrap;html=1;" parent="1" vertex="1">
          <mxGeometry x="940" y="310" width="110" height="40" as="geometry" />
        </mxCell>
        <mxCell id="Kv8froiZScfGqTA3IBXo-57" value="crud" style="rhombus;whiteSpace=wrap;html=1;rounded=0;" parent="1" vertex="1">
          <mxGeometry x="730" y="270" width="130" height="100" as="geometry" />
        </mxCell>
        <mxCell id="Kv8froiZScfGqTA3IBXo-59" value="view" style="rhombus;whiteSpace=wrap;html=1;rounded=0;" parent="1" vertex="1">
          <mxGeometry x="740" y="410" width="130" height="100" as="geometry" />
        </mxCell>
        <mxCell id="Kv8froiZScfGqTA3IBXo-65" value="" style="edgeStyle=entityRelationEdgeStyle;fontSize=12;html=1;endArrow=ERone;endFill=1;rounded=0;exitX=1;exitY=0.5;exitDx=0;exitDy=0;entryX=0;entryY=0.75;entryDx=0;entryDy=0;" parent="1" source="Kv8froiZScfGqTA3IBXo-57" edge="1" target="Kv8froiZScfGqTA3IBXo-53">
          <mxGeometry width="100" height="100" relative="1" as="geometry">
            <mxPoint x="870" y="339.33" as="sourcePoint" />
            <mxPoint x="930" y="340" as="targetPoint" />
          </mxGeometry>
        </mxCell>
        <mxCell id="Kv8froiZScfGqTA3IBXo-67" value="" style="edgeStyle=entityRelationEdgeStyle;fontSize=12;html=1;endArrow=ERoneToMany;rounded=0;entryX=1;entryY=1;entryDx=0;entryDy=0;exitX=0;exitY=0.5;exitDx=0;exitDy=0;" parent="1" source="Kv8froiZScfGqTA3IBXo-59" target="Kv8froiZScfGqTA3IBXo-1" edge="1">
          <mxGeometry width="100" height="100" relative="1" as="geometry">
            <mxPoint x="960" y="430" as="sourcePoint" />
            <mxPoint x="1060" y="330" as="targetPoint" />
            <Array as="points">
              <mxPoint x="720" y="440" />
              <mxPoint x="250" y="200" />
              <mxPoint x="260" y="200" />
            </Array>
          </mxGeometry>
        </mxCell>
        <mxCell id="Kv8froiZScfGqTA3IBXo-68" value="" style="edgeStyle=entityRelationEdgeStyle;fontSize=12;html=1;endArrow=ERone;endFill=1;rounded=0;exitX=1;exitY=0.5;exitDx=0;exitDy=0;" parent="1" edge="1">
          <mxGeometry width="100" height="100" relative="1" as="geometry">
            <mxPoint x="870" y="459.33" as="sourcePoint" />
            <mxPoint x="960" y="459.33" as="targetPoint" />
          </mxGeometry>
        </mxCell>
        <mxCell id="Kv8froiZScfGqTA3IBXo-69" value="" style="edgeStyle=entityRelationEdgeStyle;fontSize=12;html=1;endArrow=ERoneToMany;rounded=0;entryX=1;entryY=0;entryDx=0;entryDy=0;exitX=0;exitY=0.5;exitDx=0;exitDy=0;" parent="1" source="Kv8froiZScfGqTA3IBXo-57" target="Kv8froiZScfGqTA3IBXo-1" edge="1">
          <mxGeometry width="100" height="100" relative="1" as="geometry">
            <mxPoint x="750" y="470" as="sourcePoint" />
            <mxPoint x="260" y="210" as="targetPoint" />
            <Array as="points">
              <mxPoint x="730" y="450" />
              <mxPoint x="260" y="210" />
              <mxPoint x="270" y="210" />
            </Array>
          </mxGeometry>
        </mxCell>
        <mxCell id="Kv8froiZScfGqTA3IBXo-72" value="" style="edgeStyle=entityRelationEdgeStyle;fontSize=12;html=1;endArrow=ERoneToMany;rounded=0;entryX=1;entryY=1;entryDx=0;entryDy=0;exitX=0;exitY=0.5;exitDx=0;exitDy=0;" parent="1" source="Kv8froiZScfGqTA3IBXo-59" target="Kv8froiZScfGqTA3IBXo-2" edge="1">
          <mxGeometry width="100" height="100" relative="1" as="geometry">
            <mxPoint x="760" y="480" as="sourcePoint" />
            <mxPoint x="270" y="220" as="targetPoint" />
            <Array as="points">
              <mxPoint x="740" y="460" />
              <mxPoint x="270" y="220" />
              <mxPoint x="580" y="220" />
              <mxPoint x="560" y="200" />
              <mxPoint x="550" y="200" />
              <mxPoint x="560" y="200" />
              <mxPoint x="280" y="220" />
            </Array>
          </mxGeometry>
        </mxCell>
        <mxCell id="Kv8froiZScfGqTA3IBXo-73" value="" style="edgeStyle=entityRelationEdgeStyle;fontSize=12;html=1;endArrow=ERoneToMany;rounded=0;entryX=1;entryY=0.75;entryDx=0;entryDy=0;exitX=0;exitY=0.5;exitDx=0;exitDy=0;" parent="1" source="Kv8froiZScfGqTA3IBXo-57" target="Kv8froiZScfGqTA3IBXo-2" edge="1">
          <mxGeometry width="100" height="100" relative="1" as="geometry">
            <mxPoint x="770" y="490" as="sourcePoint" />
            <mxPoint x="280" y="230" as="targetPoint" />
            <Array as="points">
              <mxPoint x="750" y="470" />
              <mxPoint x="280" y="230" />
              <mxPoint x="290" y="230" />
            </Array>
          </mxGeometry>
        </mxCell>
        <mxCell id="Kv8froiZScfGqTA3IBXo-74" value="" style="edgeStyle=entityRelationEdgeStyle;fontSize=12;html=1;endArrow=ERoneToMany;rounded=0;entryX=1;entryY=1;entryDx=0;entryDy=0;exitX=0.5;exitY=0;exitDx=0;exitDy=0;" parent="1" source="Kv8froiZScfGqTA3IBXo-59" target="Kv8froiZScfGqTA3IBXo-3" edge="1">
          <mxGeometry width="100" height="100" relative="1" as="geometry">
            <mxPoint x="780" y="500" as="sourcePoint" />
            <mxPoint x="290" y="240" as="targetPoint" />
            <Array as="points">
              <mxPoint x="760" y="480" />
              <mxPoint x="290" y="240" />
              <mxPoint x="300" y="240" />
            </Array>
          </mxGeometry>
        </mxCell>
        <mxCell id="Kv8froiZScfGqTA3IBXo-75" value="" style="edgeStyle=entityRelationEdgeStyle;fontSize=12;html=1;endArrow=ERoneToMany;rounded=0;entryX=0;entryY=1;entryDx=0;entryDy=0;exitX=0.5;exitY=0;exitDx=0;exitDy=0;" parent="1" source="Kv8froiZScfGqTA3IBXo-57" target="Kv8froiZScfGqTA3IBXo-3" edge="1">
          <mxGeometry width="100" height="100" relative="1" as="geometry">
            <mxPoint x="740" y="350" as="sourcePoint" />
            <mxPoint x="570" y="200" as="targetPoint" />
            <Array as="points">
              <mxPoint x="760" y="480" />
              <mxPoint x="290" y="240" />
              <mxPoint x="300" y="240" />
              <mxPoint x="840" y="200" />
              <mxPoint x="860" y="200" />
            </Array>
          </mxGeometry>
        </mxCell>
        <mxCell id="Kv8froiZScfGqTA3IBXo-76" value="" style="edgeStyle=entityRelationEdgeStyle;fontSize=12;html=1;endArrow=ERoneToMany;rounded=0;entryX=1;entryY=1;entryDx=0;entryDy=0;exitX=1;exitY=0.5;exitDx=0;exitDy=0;" parent="1" source="Kv8froiZScfGqTA3IBXo-59" target="Kv8froiZScfGqTA3IBXo-4" edge="1">
          <mxGeometry width="100" height="100" relative="1" as="geometry">
            <mxPoint x="815" y="420" as="sourcePoint" />
            <mxPoint x="970" y="210" as="targetPoint" />
            <Array as="points">
              <mxPoint x="770" y="490" />
              <mxPoint x="1350" y="450" />
              <mxPoint x="1200" y="220" />
              <mxPoint x="1130" y="380" />
              <mxPoint x="1080" y="350" />
              <mxPoint x="1100" y="360" />
              <mxPoint x="300" y="250" />
              <mxPoint x="310" y="250" />
            </Array>
          </mxGeometry>
        </mxCell>
        <mxCell id="Kv8froiZScfGqTA3IBXo-78" value="" style="edgeStyle=entityRelationEdgeStyle;fontSize=12;html=1;endArrow=ERoneToMany;rounded=0;entryX=0;entryY=1;entryDx=0;entryDy=0;" parent="1" target="Kv8froiZScfGqTA3IBXo-4" edge="1" source="Kv8froiZScfGqTA3IBXo-57">
          <mxGeometry width="100" height="100" relative="1" as="geometry">
            <mxPoint x="1000" y="310" as="sourcePoint" />
            <mxPoint x="970" y="210" as="targetPoint" />
            <Array as="points">
              <mxPoint x="900" y="290" />
              <mxPoint x="1000" y="210" />
              <mxPoint x="770" y="490" />
              <mxPoint x="970" y="200" />
              <mxPoint x="990" y="240" />
              <mxPoint x="300" y="250" />
              <mxPoint x="310" y="250" />
            </Array>
          </mxGeometry>
        </mxCell>
        <mxCell id="Kv8froiZScfGqTA3IBXo-86" style="edgeStyle=orthogonalEdgeStyle;rounded=0;orthogonalLoop=1;jettySize=auto;html=1;exitX=0;exitY=0.5;exitDx=0;exitDy=0;" parent="1" source="Kv8froiZScfGqTA3IBXo-80" target="Kv8froiZScfGqTA3IBXo-49" edge="1">
          <mxGeometry relative="1" as="geometry" />
        </mxCell>
        <mxCell id="Kv8froiZScfGqTA3IBXo-80" value="email" style="ellipse;whiteSpace=wrap;html=1;" parent="1" vertex="1">
          <mxGeometry x="1600" y="320" width="80" height="40" as="geometry" />
        </mxCell>
        <mxCell id="Kv8froiZScfGqTA3IBXo-87" style="edgeStyle=orthogonalEdgeStyle;rounded=0;orthogonalLoop=1;jettySize=auto;html=1;exitX=0;exitY=0.5;exitDx=0;exitDy=0;entryX=1;entryY=1;entryDx=0;entryDy=0;" parent="1" source="Kv8froiZScfGqTA3IBXo-81" target="Kv8froiZScfGqTA3IBXo-49" edge="1">
          <mxGeometry relative="1" as="geometry" />
        </mxCell>
        <mxCell id="Kv8froiZScfGqTA3IBXo-81" value="username" style="ellipse;whiteSpace=wrap;html=1;" parent="1" vertex="1">
          <mxGeometry x="1600" y="370" width="80" height="40" as="geometry" />
        </mxCell>
        <mxCell id="Kv8froiZScfGqTA3IBXo-100" style="edgeStyle=orthogonalEdgeStyle;rounded=0;orthogonalLoop=1;jettySize=auto;html=1;exitX=0;exitY=0.5;exitDx=0;exitDy=0;entryX=0.75;entryY=1;entryDx=0;entryDy=0;" parent="1" source="Kv8froiZScfGqTA3IBXo-82" target="Kv8froiZScfGqTA3IBXo-49" edge="1">
          <mxGeometry relative="1" as="geometry" />
        </mxCell>
        <mxCell id="Kv8froiZScfGqTA3IBXo-82" value="&lt;u&gt;id&lt;/u&gt;" style="ellipse;whiteSpace=wrap;html=1;" parent="1" vertex="1">
          <mxGeometry x="1500" y="420" width="80" height="40" as="geometry" />
        </mxCell>
        <mxCell id="Kv8froiZScfGqTA3IBXo-84" style="edgeStyle=orthogonalEdgeStyle;rounded=0;orthogonalLoop=1;jettySize=auto;html=1;exitX=0;exitY=0.5;exitDx=0;exitDy=0;" parent="1" source="Kv8froiZScfGqTA3IBXo-83" target="Kv8froiZScfGqTA3IBXo-49" edge="1">
          <mxGeometry relative="1" as="geometry" />
        </mxCell>
        <mxCell id="Kv8froiZScfGqTA3IBXo-83" value="isAdmin" style="ellipse;whiteSpace=wrap;html=1;" parent="1" vertex="1">
          <mxGeometry x="1570" y="260" width="80" height="40" as="geometry" />
        </mxCell>
        <mxCell id="Kv8froiZScfGqTA3IBXo-90" value="star" style="rounded=0;whiteSpace=wrap;html=1;" parent="1" vertex="1">
          <mxGeometry x="1355" y="720" width="110" height="40" as="geometry" />
        </mxCell>
        <mxCell id="Kv8froiZScfGqTA3IBXo-91" value="logs" style="rounded=0;whiteSpace=wrap;html=1;" parent="1" vertex="1">
          <mxGeometry x="850" y="720" width="110" height="40" as="geometry" />
        </mxCell>
        <mxCell id="Kv8froiZScfGqTA3IBXo-92" value="adds" style="rhombus;whiteSpace=wrap;html=1;rounded=0;" parent="1" vertex="1">
          <mxGeometry x="1310" y="540" width="130" height="100" as="geometry" />
        </mxCell>
        <mxCell id="Kv8froiZScfGqTA3IBXo-93" value="create" style="rhombus;whiteSpace=wrap;html=1;rounded=0;" parent="1" vertex="1">
          <mxGeometry x="980" y="530" width="130" height="100" as="geometry" />
        </mxCell>
        <mxCell id="Kv8froiZScfGqTA3IBXo-95" value="" style="edgeStyle=entityRelationEdgeStyle;fontSize=12;html=1;endArrow=ERone;endFill=1;rounded=0;exitX=1;exitY=0.5;exitDx=0;exitDy=0;entryX=0;entryY=1;entryDx=0;entryDy=0;" parent="1" source="Kv8froiZScfGqTA3IBXo-93" target="Kv8froiZScfGqTA3IBXo-49" edge="1">
          <mxGeometry width="100" height="100" relative="1" as="geometry">
            <mxPoint x="870" y="350" as="sourcePoint" />
            <mxPoint x="940" y="350" as="targetPoint" />
            <Array as="points">
              <mxPoint x="1190" y="500" />
              <mxPoint x="1200" y="480" />
            </Array>
          </mxGeometry>
        </mxCell>
        <mxCell id="Kv8froiZScfGqTA3IBXo-96" value="" style="edgeStyle=entityRelationEdgeStyle;fontSize=12;html=1;endArrow=ERoneToMany;rounded=0;exitX=0.5;exitY=1;exitDx=0;exitDy=0;entryX=1;entryY=0.75;entryDx=0;entryDy=0;" parent="1" source="Kv8froiZScfGqTA3IBXo-93" target="Kv8froiZScfGqTA3IBXo-91" edge="1">
          <mxGeometry width="100" height="100" relative="1" as="geometry">
            <mxPoint x="880" y="470" as="sourcePoint" />
            <mxPoint x="970" y="800" as="targetPoint" />
            <Array as="points">
              <mxPoint x="780" y="500" />
              <mxPoint x="1360" y="460" />
              <mxPoint x="1210" y="230" />
              <mxPoint x="1140" y="390" />
              <mxPoint x="1090" y="360" />
              <mxPoint x="1110" y="370" />
              <mxPoint x="310" y="260" />
              <mxPoint x="320" y="260" />
            </Array>
          </mxGeometry>
        </mxCell>
        <mxCell id="Kv8froiZScfGqTA3IBXo-97" value="" style="edgeStyle=entityRelationEdgeStyle;fontSize=12;html=1;endArrow=ERoneToMany;rounded=0;exitX=0.5;exitY=1;exitDx=0;exitDy=0;entryX=0.75;entryY=0;entryDx=0;entryDy=0;" parent="1" source="Kv8froiZScfGqTA3IBXo-92" target="Kv8froiZScfGqTA3IBXo-90" edge="1">
          <mxGeometry width="100" height="100" relative="1" as="geometry">
            <mxPoint x="1055" y="640" as="sourcePoint" />
            <mxPoint x="970" y="760" as="targetPoint" />
            <Array as="points">
              <mxPoint x="790" y="510" />
              <mxPoint x="1370" y="470" />
              <mxPoint x="1220" y="240" />
              <mxPoint x="1150" y="400" />
              <mxPoint x="1100" y="370" />
              <mxPoint x="1120" y="380" />
              <mxPoint x="320" y="270" />
              <mxPoint x="330" y="270" />
            </Array>
          </mxGeometry>
        </mxCell>
        <mxCell id="Kv8froiZScfGqTA3IBXo-98" value="" style="edgeStyle=entityRelationEdgeStyle;fontSize=12;html=1;endArrow=ERone;endFill=1;rounded=0;exitX=0.5;exitY=0;exitDx=0;exitDy=0;entryX=0.25;entryY=1;entryDx=0;entryDy=0;" parent="1" source="Kv8froiZScfGqTA3IBXo-92" target="Kv8froiZScfGqTA3IBXo-49" edge="1">
          <mxGeometry width="100" height="100" relative="1" as="geometry">
            <mxPoint x="1120" y="590" as="sourcePoint" />
            <mxPoint x="1370" y="410" as="targetPoint" />
            <Array as="points">
              <mxPoint x="1200" y="510" />
              <mxPoint x="1210" y="490" />
            </Array>
          </mxGeometry>
        </mxCell>
        <mxCell id="Kv8froiZScfGqTA3IBXo-119" style="edgeStyle=orthogonalEdgeStyle;rounded=0;orthogonalLoop=1;jettySize=auto;html=1;exitX=0;exitY=0.5;exitDx=0;exitDy=0;entryX=0.75;entryY=1;entryDx=0;entryDy=0;" parent="1" source="Kv8froiZScfGqTA3IBXo-101" target="Kv8froiZScfGqTA3IBXo-91" edge="1">
          <mxGeometry relative="1" as="geometry" />
        </mxCell>
        <mxCell id="Kv8froiZScfGqTA3IBXo-101" value="rate" style="ellipse;whiteSpace=wrap;html=1;" parent="1" vertex="1">
          <mxGeometry x="940" y="890" width="80" height="40" as="geometry" />
        </mxCell>
        <mxCell id="Kv8froiZScfGqTA3IBXo-115" style="edgeStyle=orthogonalEdgeStyle;rounded=0;orthogonalLoop=1;jettySize=auto;html=1;exitX=0.5;exitY=0;exitDx=0;exitDy=0;entryX=0.25;entryY=1;entryDx=0;entryDy=0;" parent="1" source="Kv8froiZScfGqTA3IBXo-102" target="Kv8froiZScfGqTA3IBXo-91" edge="1">
          <mxGeometry relative="1" as="geometry" />
        </mxCell>
        <mxCell id="Kv8froiZScfGqTA3IBXo-102" value="time" style="ellipse;whiteSpace=wrap;html=1;" parent="1" vertex="1">
          <mxGeometry x="840" y="890" width="80" height="40" as="geometry" />
        </mxCell>
        <mxCell id="Kv8froiZScfGqTA3IBXo-103" value="principle" style="ellipse;whiteSpace=wrap;html=1;" parent="1" vertex="1">
          <mxGeometry x="750" y="870" width="80" height="40" as="geometry" />
        </mxCell>
        <mxCell id="Kv8froiZScfGqTA3IBXo-112" style="edgeStyle=orthogonalEdgeStyle;rounded=0;orthogonalLoop=1;jettySize=auto;html=1;exitX=0.5;exitY=0;exitDx=0;exitDy=0;entryX=0;entryY=1;entryDx=0;entryDy=0;" parent="1" source="Kv8froiZScfGqTA3IBXo-104" target="Kv8froiZScfGqTA3IBXo-91" edge="1">
          <mxGeometry relative="1" as="geometry" />
        </mxCell>
        <mxCell id="Kv8froiZScfGqTA3IBXo-104" value="type" style="ellipse;whiteSpace=wrap;html=1;" parent="1" vertex="1">
          <mxGeometry x="670" y="830" width="80" height="40" as="geometry" />
        </mxCell>
        <mxCell id="Kv8froiZScfGqTA3IBXo-113" style="edgeStyle=orthogonalEdgeStyle;rounded=0;orthogonalLoop=1;jettySize=auto;html=1;exitX=1;exitY=0;exitDx=0;exitDy=0;entryX=0;entryY=0.5;entryDx=0;entryDy=0;" parent="1" source="Kv8froiZScfGqTA3IBXo-105" target="Kv8froiZScfGqTA3IBXo-91" edge="1">
          <mxGeometry relative="1" as="geometry" />
        </mxCell>
        <mxCell id="Kv8froiZScfGqTA3IBXo-105" value="bank" style="ellipse;whiteSpace=wrap;html=1;" parent="1" vertex="1">
          <mxGeometry x="610" y="780" width="80" height="40" as="geometry" />
        </mxCell>
        <mxCell id="Kv8froiZScfGqTA3IBXo-109" style="edgeStyle=orthogonalEdgeStyle;rounded=0;orthogonalLoop=1;jettySize=auto;html=1;exitX=1;exitY=0.5;exitDx=0;exitDy=0;entryX=0;entryY=0.25;entryDx=0;entryDy=0;" parent="1" source="Kv8froiZScfGqTA3IBXo-106" target="Kv8froiZScfGqTA3IBXo-91" edge="1">
          <mxGeometry relative="1" as="geometry" />
        </mxCell>
        <mxCell id="Kv8froiZScfGqTA3IBXo-106" value="&lt;u&gt;lid&lt;/u&gt;" style="ellipse;whiteSpace=wrap;html=1;" parent="1" vertex="1">
          <mxGeometry x="590" y="710" width="80" height="40" as="geometry" />
        </mxCell>
        <mxCell id="Kv8froiZScfGqTA3IBXo-107" value="outcome" style="ellipse;whiteSpace=wrap;html=1;" parent="1" vertex="1">
          <mxGeometry x="1020" y="850" width="80" height="40" as="geometry" />
        </mxCell>
        <mxCell id="Kv8froiZScfGqTA3IBXo-118" style="edgeStyle=orthogonalEdgeStyle;rounded=0;orthogonalLoop=1;jettySize=auto;html=1;exitX=0;exitY=0.5;exitDx=0;exitDy=0;entryX=1;entryY=1;entryDx=0;entryDy=0;" parent="1" source="Kv8froiZScfGqTA3IBXo-108" target="Kv8froiZScfGqTA3IBXo-91" edge="1">
          <mxGeometry relative="1" as="geometry" />
        </mxCell>
        <mxCell id="Kv8froiZScfGqTA3IBXo-108" value="date" style="ellipse;whiteSpace=wrap;html=1;" parent="1" vertex="1">
          <mxGeometry x="1060" y="780" width="80" height="40" as="geometry" />
        </mxCell>
        <mxCell id="Kv8froiZScfGqTA3IBXo-114" style="edgeStyle=orthogonalEdgeStyle;rounded=0;orthogonalLoop=1;jettySize=auto;html=1;exitX=0.5;exitY=0;exitDx=0;exitDy=0;" parent="1" source="Kv8froiZScfGqTA3IBXo-103" edge="1">
          <mxGeometry relative="1" as="geometry">
            <mxPoint x="861" y="760" as="targetPoint" />
          </mxGeometry>
        </mxCell>
        <mxCell id="Kv8froiZScfGqTA3IBXo-117" style="edgeStyle=orthogonalEdgeStyle;rounded=0;orthogonalLoop=1;jettySize=auto;html=1;exitX=0;exitY=0.5;exitDx=0;exitDy=0;entryX=0.909;entryY=1;entryDx=0;entryDy=0;entryPerimeter=0;" parent="1" source="Kv8froiZScfGqTA3IBXo-107" target="Kv8froiZScfGqTA3IBXo-91" edge="1">
          <mxGeometry relative="1" as="geometry" />
        </mxCell>
        <mxCell id="Kv8froiZScfGqTA3IBXo-138" style="edgeStyle=orthogonalEdgeStyle;rounded=0;orthogonalLoop=1;jettySize=auto;html=1;exitX=0;exitY=0.5;exitDx=0;exitDy=0;entryX=0.25;entryY=1;entryDx=0;entryDy=0;" parent="1" source="Kv8froiZScfGqTA3IBXo-121" target="Kv8froiZScfGqTA3IBXo-90" edge="1">
          <mxGeometry relative="1" as="geometry" />
        </mxCell>
        <mxCell id="Kv8froiZScfGqTA3IBXo-121" value="types" style="ellipse;whiteSpace=wrap;html=1;" parent="1" vertex="1">
          <mxGeometry x="1465" y="870" width="80" height="40" as="geometry" />
        </mxCell>
        <mxCell id="Kv8froiZScfGqTA3IBXo-122" value="bank" style="ellipse;whiteSpace=wrap;html=1;" parent="1" vertex="1">
          <mxGeometry x="1540" y="830" width="80" height="40" as="geometry" />
        </mxCell>
        <mxCell id="Kv8froiZScfGqTA3IBXo-140" style="edgeStyle=orthogonalEdgeStyle;rounded=0;orthogonalLoop=1;jettySize=auto;html=1;exitX=0;exitY=0.5;exitDx=0;exitDy=0;entryX=0.5;entryY=1;entryDx=0;entryDy=0;" parent="1" source="Kv8froiZScfGqTA3IBXo-123" target="Kv8froiZScfGqTA3IBXo-90" edge="1">
          <mxGeometry relative="1" as="geometry" />
        </mxCell>
        <mxCell id="Kv8froiZScfGqTA3IBXo-123" value="userId" style="ellipse;whiteSpace=wrap;html=1;" parent="1" vertex="1">
          <mxGeometry x="1570" y="780" width="80" height="40" as="geometry" />
        </mxCell>
        <mxCell id="Kv8froiZScfGqTA3IBXo-141" style="edgeStyle=orthogonalEdgeStyle;rounded=0;orthogonalLoop=1;jettySize=auto;html=1;exitX=0;exitY=0.5;exitDx=0;exitDy=0;entryX=1;entryY=0.75;entryDx=0;entryDy=0;" parent="1" source="Kv8froiZScfGqTA3IBXo-124" target="Kv8froiZScfGqTA3IBXo-90" edge="1">
          <mxGeometry relative="1" as="geometry" />
        </mxCell>
        <mxCell id="Kv8froiZScfGqTA3IBXo-124" value="isStar" style="ellipse;whiteSpace=wrap;html=1;" parent="1" vertex="1">
          <mxGeometry x="1590" y="730" width="80" height="40" as="geometry" />
        </mxCell>
        <mxCell id="Kv8froiZScfGqTA3IBXo-142" style="edgeStyle=orthogonalEdgeStyle;rounded=0;orthogonalLoop=1;jettySize=auto;html=1;exitX=0;exitY=0.5;exitDx=0;exitDy=0;entryX=1;entryY=0.25;entryDx=0;entryDy=0;" parent="1" source="Kv8froiZScfGqTA3IBXo-125" target="Kv8froiZScfGqTA3IBXo-90" edge="1">
          <mxGeometry relative="1" as="geometry" />
        </mxCell>
        <mxCell id="Kv8froiZScfGqTA3IBXo-125" value="&lt;u&gt;starid&lt;/u&gt;" style="ellipse;whiteSpace=wrap;html=1;" parent="1" vertex="1">
          <mxGeometry x="1590" y="670" width="80" height="40" as="geometry" />
        </mxCell>
        <mxCell id="Kv8froiZScfGqTA3IBXo-131" style="edgeStyle=orthogonalEdgeStyle;rounded=0;orthogonalLoop=1;jettySize=auto;html=1;exitX=0.5;exitY=0;exitDx=0;exitDy=0;entryX=0;entryY=0;entryDx=0;entryDy=0;" parent="1" source="Kv8froiZScfGqTA3IBXo-126" target="Kv8froiZScfGqTA3IBXo-90" edge="1">
          <mxGeometry relative="1" as="geometry" />
        </mxCell>
        <mxCell id="Kv8froiZScfGqTA3IBXo-126" value="pdid" style="ellipse;whiteSpace=wrap;html=1;" parent="1" vertex="1">
          <mxGeometry x="1160" y="740" width="80" height="40" as="geometry" />
        </mxCell>
        <mxCell id="Kv8froiZScfGqTA3IBXo-133" style="edgeStyle=orthogonalEdgeStyle;rounded=0;orthogonalLoop=1;jettySize=auto;html=1;exitX=1;exitY=0;exitDx=0;exitDy=0;entryX=0;entryY=0.25;entryDx=0;entryDy=0;" parent="1" source="Kv8froiZScfGqTA3IBXo-127" target="Kv8froiZScfGqTA3IBXo-90" edge="1">
          <mxGeometry relative="1" as="geometry" />
        </mxCell>
        <mxCell id="Kv8froiZScfGqTA3IBXo-127" value="sf" style="ellipse;whiteSpace=wrap;html=1;" parent="1" vertex="1">
          <mxGeometry x="1170" y="790" width="80" height="40" as="geometry" />
        </mxCell>
        <mxCell id="Kv8froiZScfGqTA3IBXo-128" value="interests" style="ellipse;whiteSpace=wrap;html=1;" parent="1" vertex="1">
          <mxGeometry x="1355" y="900" width="80" height="40" as="geometry" />
        </mxCell>
        <mxCell id="Kv8froiZScfGqTA3IBXo-135" style="edgeStyle=orthogonalEdgeStyle;rounded=0;orthogonalLoop=1;jettySize=auto;html=1;exitX=1;exitY=0;exitDx=0;exitDy=0;entryX=0;entryY=0.5;entryDx=0;entryDy=0;" parent="1" source="Kv8froiZScfGqTA3IBXo-129" target="Kv8froiZScfGqTA3IBXo-90" edge="1">
          <mxGeometry relative="1" as="geometry" />
        </mxCell>
        <mxCell id="Kv8froiZScfGqTA3IBXo-129" value="stdSav" style="ellipse;whiteSpace=wrap;html=1;" parent="1" vertex="1">
          <mxGeometry x="1180" y="840" width="80" height="40" as="geometry" />
        </mxCell>
        <mxCell id="Kv8froiZScfGqTA3IBXo-136" style="edgeStyle=orthogonalEdgeStyle;rounded=0;orthogonalLoop=1;jettySize=auto;html=1;exitX=0.5;exitY=0;exitDx=0;exitDy=0;entryX=0;entryY=0.75;entryDx=0;entryDy=0;" parent="1" source="Kv8froiZScfGqTA3IBXo-130" target="Kv8froiZScfGqTA3IBXo-90" edge="1">
          <mxGeometry relative="1" as="geometry" />
        </mxCell>
        <mxCell id="Kv8froiZScfGqTA3IBXo-130" value="edid" style="ellipse;whiteSpace=wrap;html=1;" parent="1" vertex="1">
          <mxGeometry x="1280" y="870" width="80" height="40" as="geometry" />
        </mxCell>
        <mxCell id="Kv8froiZScfGqTA3IBXo-137" style="edgeStyle=orthogonalEdgeStyle;rounded=0;orthogonalLoop=1;jettySize=auto;html=1;exitX=0;exitY=0;exitDx=0;exitDy=0;entryX=0.098;entryY=1.059;entryDx=0;entryDy=0;entryPerimeter=0;" parent="1" source="Kv8froiZScfGqTA3IBXo-128" target="Kv8froiZScfGqTA3IBXo-90" edge="1">
          <mxGeometry relative="1" as="geometry" />
        </mxCell>
        <mxCell id="Kv8froiZScfGqTA3IBXo-139" style="edgeStyle=orthogonalEdgeStyle;rounded=0;orthogonalLoop=1;jettySize=auto;html=1;exitX=0;exitY=0.5;exitDx=0;exitDy=0;entryX=0.363;entryY=1.082;entryDx=0;entryDy=0;entryPerimeter=0;" parent="1" source="Kv8froiZScfGqTA3IBXo-122" target="Kv8froiZScfGqTA3IBXo-90" edge="1">
          <mxGeometry relative="1" as="geometry" />
        </mxCell>
      </root>
    </mxGraphModel>
  </diagram>
</mxfile>
